<svg width="72" height="72" viewBox="0 0 72 72" fill="none" xmlns="http://www.w3.org/2000/svg">
<path d="M72 36C72 55.8823 55.8823 72 36 72C16.1177 72 0 55.8823 0 36C0 16.1177 16.1177 0 36 0C55.8823 0 72 16.1177 72 36ZM4.56811 36C4.56811 53.3594 18.6406 67.4319 36 67.4319C53.3594 67.4319 67.4319 53.3594 67.4319 36C67.4319 18.6406 53.3594 4.56811 36 4.56811C18.6406 4.56811 4.56811 18.6406 4.56811 36Z" fill="#D9D9D9"/>
<path d="M0 36C0 40.7276 0.931168 45.4089 2.74033 49.7766C4.54951 54.1443 7.20125 58.1129 10.5442 61.4558C13.8871 64.7988 17.8557 67.4505 22.2234 69.2597C26.5911 71.0688 31.2724 72 36 72V67.4319C31.8723 67.4319 27.785 66.6189 23.9715 65.0393C20.158 63.4597 16.693 61.1444 13.7743 58.2257C10.8556 55.307 8.54033 51.842 6.96072 48.0285C5.38113 44.215 4.56812 40.1277 4.56812 36H0Z" fill="#FF5D0E"/>
</svg>
