<svg width="72" height="72" viewBox="0 0 72 72" fill="none" xmlns="http://www.w3.org/2000/svg">
<path d="M72 36C72 55.8823 55.8823 72 36 72C16.1177 72 0 55.8823 0 36C0 16.1177 16.1177 0 36 0C55.8823 0 72 16.1177 72 36ZM4.56811 36C4.56811 53.3594 18.6406 67.4319 36 67.4319C53.3594 67.4319 67.4319 53.3594 67.4319 36C67.4319 18.6406 53.3594 4.56811 36 4.56811C18.6406 4.56811 4.56811 18.6406 4.56811 36Z" fill="#D9D9D9"/>
<path d="M36 72C40.7276 72 45.4089 71.0688 49.7766 69.2597C54.1443 67.4505 58.1129 64.7988 61.4558 61.4558C64.7988 58.1129 67.4505 54.1443 69.2597 49.7766C71.0688 45.4089 72 40.7276 72 36H67.4319C67.4319 40.1277 66.6189 44.215 65.0393 48.0285C63.4597 51.842 61.1444 55.307 58.2257 58.2257C55.307 61.1444 51.842 63.4597 48.0285 65.0393C44.215 66.6189 40.1277 67.4319 36 67.4319V72Z" fill="#FF5D0E"/>
</svg>
