<svg width="72" height="72" viewBox="0 0 72 72" fill="none" xmlns="http://www.w3.org/2000/svg">
<path d="M36 0C55.8823 0 72 16.1177 72 36C72 55.8823 55.8823 72 36 72C16.1177 72 0 55.8823 0 36C0 16.1177 16.1177 0 36 0ZM36 67.4319C53.3594 67.4319 67.4319 53.3594 67.4319 36C67.4319 18.6406 53.3594 4.56812 36 4.56812C18.6406 4.56812 4.56811 18.6406 4.56811 36C4.56811 53.3594 18.6406 67.4319 36 67.4319Z" fill="#D9D9D9"/>
<path d="M36 0C31.2724 0 26.5911 0.931168 22.2234 2.74033C17.8557 4.54951 13.8871 7.20125 10.5442 10.5442C7.20125 13.8871 4.54951 17.8557 2.74034 22.2234C0.931167 26.5911 -2.06649e-07 31.2724 0 36H4.56811C4.56811 31.8723 5.38112 27.785 6.96072 23.9715C8.54032 20.158 10.8556 16.693 13.7743 13.7743C16.693 10.8556 20.158 8.54033 23.9715 6.96072C27.785 5.38113 31.8723 4.56812 36 4.56812V0Z" fill="#FF5D0E"/>
</svg>
