<svg width="72" height="72" viewBox="0 0 72 72" fill="none" xmlns="http://www.w3.org/2000/svg">
<path d="M72 36C72 55.8823 55.8823 72 36 72C16.1177 72 0 55.8823 0 36C0 16.1177 16.1177 0 36 0C55.8823 0 72 16.1177 72 36ZM4.56811 36C4.56811 53.3594 18.6406 67.4319 36 67.4319C53.3594 67.4319 67.4319 53.3594 67.4319 36C67.4319 18.6406 53.3594 4.56811 36 4.56811C18.6406 4.56811 4.56811 18.6406 4.56811 36Z" fill="#D9D9D9"/>
<path d="M72 36C72 31.2724 71.0688 26.5911 69.2597 22.2234C67.4505 17.8557 64.7988 13.8871 61.4558 10.5442C58.1129 7.20125 54.1443 4.54951 49.7766 2.74034C45.4089 0.931167 40.7276 -2.06649e-07 36 0V4.56811C40.1277 4.56811 44.215 5.38112 48.0285 6.96072C51.842 8.54032 55.307 10.8556 58.2257 13.7743C61.1444 16.693 63.4597 20.158 65.0393 23.9715C66.6189 27.785 67.4319 31.8723 67.4319 36H72Z" fill="#FF5D0E"/>
</svg>
