<svg width="20" height="20" viewBox="0 0 20 20" fill="none" xmlns="http://www.w3.org/2000/svg">
<path d="M14.9003 7.05933H7.05986V5.09925C7.05844 4.51725 7.22977 3.948 7.55211 3.46342C7.87444 2.97892 8.33336 2.60092 8.87069 2.37742C9.40794 2.15383 9.99961 2.09483 10.5705 2.20775C11.1414 2.32067 11.666 2.60042 12.0778 3.01175C12.4461 3.38808 12.7098 3.85442 12.8422 4.36417C12.8744 4.489 12.9308 4.60633 13.0083 4.70933C13.0859 4.81233 13.1829 4.89908 13.2939 4.96467C13.4049 5.03017 13.5277 5.07317 13.6554 5.09125C13.783 5.10925 13.9129 5.102 14.0379 5.06983C14.1628 5.03767 14.28 4.98117 14.383 4.90367C14.486 4.82617 14.5728 4.72917 14.6383 4.61817C14.7038 4.50708 14.7468 4.38425 14.7649 4.25658C14.7829 4.12892 14.7756 3.999 14.7434 3.87417C14.5202 3.02625 14.0774 2.25208 13.4596 1.62983C12.7738 0.946084 11.9006 0.481001 10.9507 0.293084C10.0006 0.105251 9.01611 0.203084 8.12177 0.574251C7.22719 0.945501 6.46277 1.57342 5.92494 2.37875C5.38711 3.18417 5.09994 4.13075 5.09977 5.09925V7.05933C4.31994 7.05933 3.57211 7.36908 3.02077 7.9205C2.46936 8.47183 2.15961 9.21975 2.15961 9.9995V16.8598C2.15961 17.6397 2.46936 18.3874 3.02077 18.9388C3.57211 19.4902 4.31994 19.8 5.09977 19.8H14.9003C15.68 19.8 16.4279 19.4902 16.9793 18.9388C17.5306 18.3874 17.8404 17.6397 17.8404 16.8598V9.9995C17.8404 9.21975 17.5307 8.47183 16.9793 7.9205C16.4279 7.36908 15.68 7.05933 14.9003 7.05933ZM15.8804 16.8598C15.8804 17.1197 15.777 17.3691 15.5933 17.5528C15.4095 17.7367 15.1602 17.8399 14.9003 17.8399H5.09977C4.83986 17.8399 4.59052 17.7367 4.40677 17.5528C4.22294 17.3691 4.11969 17.1197 4.11969 16.8598V9.9995C4.11969 9.73958 4.22294 9.49025 4.40677 9.3065C4.59052 9.12275 4.83986 9.01942 5.09977 9.01942H14.9003C15.1602 9.01942 15.4095 9.12275 15.5933 9.3065C15.777 9.49025 15.8804 9.73958 15.8804 9.9995V16.8598Z" fill="#555555"/>
</svg>
